<?xml version="1.0" standalone="no"?>
<!DOCTYPE svg PUBLIC "-//W3C//DTD SVG 20010904//EN"
 "http://www.w3.org/TR/2001/REC-SVG-20010904/DTD/svg10.dtd">
<svg version="1.0" xmlns="http://www.w3.org/2000/svg"
 width="655.000000pt" height="289.000000pt" viewBox="0 0 655.000000 289.000000"
 preserveAspectRatio="xMidYMid meet">
<metadata>
Created by potrace 1.13, written by Peter Selinger 2001-2015
</metadata>
<g transform="translate(0.000000,289.000000) scale(0.100000,-0.100000)"
fill="#ffffff" stroke="none">
<path d="M2162 2125 c-71 -31 -102 -66 -152 -169 -64 -132 -85 -214 -110 -426
-28 -236 -49 -408 -55 -447 -5 -25 -16 -38 -49 -58 -49 -29 -71 -31 -80 -9
-11 30 -6 129 15 275 24 164 19 195 -34 213 -52 19 -89 -13 -179 -156 -44 -70
-82 -128 -84 -128 -2 0 3 17 10 38 21 58 38 172 31 203 -10 43 -38 54 -90 35
-55 -22 -73 -42 -150 -172 -36 -60 -65 -106 -65 -104 0 3 7 40 15 83 19 101
20 181 1 196 -8 7 -34 11 -58 9 -38 -3 -45 -7 -60 -38 -9 -19 -32 -109 -50
-200 -20 -100 -39 -170 -48 -177 -8 -7 -50 -31 -94 -53 -64 -33 -89 -40 -136
-40 -42 0 -61 5 -73 18 -10 10 -17 21 -17 25 0 3 32 23 71 43 40 21 95 60 125
86 65 60 88 115 82 193 -4 46 -10 61 -38 90 -73 76 -195 73 -285 -7 -53 -47
-101 -140 -118 -226 -11 -60 -13 -62 -42 -62 -16 1 -41 7 -55 15 -38 22 -58
18 -75 -15 -33 -64 -10 -89 96 -105 58 -9 64 -12 82 -57 42 -102 111 -148 219
-148 72 0 172 27 227 61 34 20 50 15 51 -17 0 -22 41 -48 75 -48 57 0 63 8
195 292 24 50 45 90 47 88 2 -2 -3 -49 -12 -104 -8 -56 -15 -127 -15 -158 0
-48 4 -59 29 -85 21 -21 39 -29 65 -29 43 0 64 27 96 125 23 72 88 235 99 247
3 4 6 -59 6 -140 0 -165 10 -204 58 -228 39 -21 97 -12 166 26 l54 30 51 -25
c82 -40 145 -47 234 -29 105 21 255 70 325 105 31 16 57 25 57 19 0 -6 22 -33
49 -60 100 -100 270 -106 408 -15 l52 34 6 -29 c7 -32 47 -70 75 -70 18 0 51
32 69 68 7 13 36 89 66 170 29 81 58 158 63 172 8 23 11 19 22 -35 15 -75 41
-127 77 -155 24 -19 38 -21 91 -18 60 4 63 3 68 -22 30 -137 105 -197 212
-170 62 15 97 35 148 82 l43 39 14 -28 c22 -41 66 -79 108 -92 31 -10 45 -9
89 8 29 11 70 32 92 46 l39 26 43 -39 c75 -69 170 -64 273 15 l47 36 15 -24
c60 -92 130 -102 233 -33 36 24 54 32 57 23 8 -26 53 -58 89 -64 62 -10 185
31 266 88 21 15 31 17 34 9 10 -30 56 -72 97 -87 67 -26 144 -5 234 64 28 21
35 23 39 11 3 -8 22 -32 42 -52 29 -29 46 -38 71 -38 65 1 163 60 222 135 28
35 28 36 16 98 -17 91 -19 92 -64 38 -48 -57 -100 -99 -133 -108 -50 -12 -53
38 -17 217 25 121 31 193 19 224 -4 11 -19 16 -49 16 -32 0 -51 7 -78 29 -34
26 -40 28 -83 20 -133 -25 -268 -181 -320 -368 -14 -50 -25 -68 -58 -95 -54
-44 -102 -68 -129 -64 -41 6 -37 50 34 414 l10 52 134 7 c92 5 138 11 145 20
6 8 10 31 8 52 l-3 38 -127 3 c-113 2 -128 5 -128 20 0 9 14 67 30 127 16 61
30 120 30 133 0 41 -72 48 -137 14 -23 -13 -51 -86 -79 -207 -8 -38 -21 -73
-27 -77 -7 -4 -40 -8 -74 -8 -81 0 -113 -12 -113 -44 0 -33 15 -41 94 -54 37
-6 71 -13 74 -16 5 -6 -39 -237 -58 -308 -18 -63 -145 -165 -179 -143 -18 10
-12 103 14 230 27 133 31 195 13 213 -7 7 -29 12 -49 12 -25 0 -47 8 -67 25
-73 61 -206 4 -307 -130 -47 -63 -98 -173 -110 -238 -6 -30 -17 -44 -52 -68
-93 -64 -132 -56 -141 29 -6 70 9 126 74 264 30 65 80 193 111 285 54 162 56
172 57 278 1 126 -11 172 -55 210 -69 58 -166 12 -250 -118 -56 -87 -139 -363
-139 -463 0 -41 0 -42 -47 -53 -105 -26 -178 -92 -239 -213 -20 -40 -42 -76
-48 -80 -6 -4 -30 -8 -53 -8 -60 0 -68 19 -65 155 1 60 -3 124 -9 142 -9 28
-15 33 -42 33 -39 0 -111 -72 -150 -149 l-26 -53 -3 98 -3 99 -41 3 c-25 2
-45 -2 -51 -10 -16 -19 -49 -136 -75 -266 l-23 -113 -53 -35 c-109 -73 -193
-96 -255 -70 -20 8 -37 21 -36 28 0 7 32 28 71 47 131 62 197 153 198 269 0
122 -50 177 -155 169 -75 -5 -115 -25 -176 -88 -57 -58 -97 -136 -119 -233
l-17 -71 -74 -42 c-84 -49 -94 -52 -78 -22 29 55 50 139 50 202 0 86 -27 147
-85 189 -36 26 -47 29 -88 24 l-47 -5 43 67 c116 181 157 340 121 470 -31 110
-86 144 -173 107z m48 -186 c0 -27 -9 -78 -21 -112 -20 -60 -138 -298 -165
-334 -12 -17 -13 -17 -14 4 0 13 18 93 40 178 66 256 160 411 160 264z m2014
-54 c-1 -101 -28 -213 -98 -400 l-41 -110 -3 55 c-9 142 48 472 90 525 11 14
28 25 37 23 13 -3 16 -18 15 -93z m-1410 -517 c22 -31 20 -66 -7 -113 -24 -42
-86 -85 -125 -85 -22 0 -23 3 -17 43 8 44 46 130 73 160 21 24 58 21 76 -5z
m-2014 -17 c13 -33 7 -62 -22 -103 -21 -31 -95 -78 -121 -78 -41 0 -4 133 49
180 45 39 78 39 94 1z m3104 -262 c-7 -15 -27 -41 -44 -58 -36 -36 -88 -42
-115 -14 -23 23 -15 97 20 184 31 78 61 121 107 155 l33 25 6 -133 c5 -102 3
-139 -7 -159z m776 278 c0 -30 -63 -283 -77 -311 -54 -108 -133 -100 -133 12
1 52 42 163 82 219 49 69 128 118 128 80z m1056 -4 c-3 -10 -19 -79 -36 -153
-35 -156 -68 -223 -113 -228 -45 -5 -57 13 -57 84 0 104 65 239 139 290 43 29
75 32 67 7z m-3536 -43 c27 -27 33 -60 28 -138 -10 -143 -105 -236 -211 -205
-29 8 -32 13 -35 50 -3 46 30 198 53 242 34 68 122 94 165 51z"/>
</g>
</svg>
